<mxfile host="app.diagrams.net" modified="2023-02-13T15:45:41.897Z" agent="5.0 (Windows NT 10.0; Win64; x64) AppleWebKit/537.36 (KHTML, like Gecko) Chrome/109.0.0.0 Safari/537.36" etag="iFL25erP3SG1x8wD6tXY" version="20.8.20" type="github">
  <diagram id="C5RBs43oDa-KdzZeNtuy" name="Page-1">
    <mxGraphModel dx="2868" dy="2761" grid="1" gridSize="10" guides="1" tooltips="1" connect="1" arrows="1" fold="1" page="1" pageScale="1" pageWidth="827" pageHeight="1169" math="0" shadow="0">
      <root>
        <mxCell id="WIyWlLk6GJQsqaUBKTNV-0" />
        <mxCell id="WIyWlLk6GJQsqaUBKTNV-1" parent="WIyWlLk6GJQsqaUBKTNV-0" />
        <mxCell id="YesEiogPMr3verc6b-B8-19" style="edgeStyle=orthogonalEdgeStyle;rounded=0;orthogonalLoop=1;jettySize=auto;html=1;exitX=0.5;exitY=1;exitDx=0;exitDy=0;entryX=0.5;entryY=0;entryDx=0;entryDy=0;fontSize=12;" edge="1" parent="WIyWlLk6GJQsqaUBKTNV-1" source="WIyWlLk6GJQsqaUBKTNV-3" target="YesEiogPMr3verc6b-B8-17">
          <mxGeometry relative="1" as="geometry" />
        </mxCell>
        <mxCell id="WIyWlLk6GJQsqaUBKTNV-3" value="Read Image" style="rounded=1;whiteSpace=wrap;html=1;fontSize=12;glass=0;strokeWidth=1;shadow=0;" parent="WIyWlLk6GJQsqaUBKTNV-1" vertex="1">
          <mxGeometry x="280" y="50" width="120" height="40" as="geometry" />
        </mxCell>
        <mxCell id="YesEiogPMr3verc6b-B8-10" value="0 &amp;lt; hh &amp;lt; h&amp;nbsp;" style="edgeStyle=orthogonalEdgeStyle;rounded=0;orthogonalLoop=1;jettySize=auto;html=1;exitX=1;exitY=0.5;exitDx=0;exitDy=0;entryX=0;entryY=0.5;entryDx=0;entryDy=0;" edge="1" parent="WIyWlLk6GJQsqaUBKTNV-1" target="YesEiogPMr3verc6b-B8-9">
          <mxGeometry relative="1" as="geometry">
            <mxPoint x="400" y="375" as="sourcePoint" />
            <mxPoint x="470" y="375" as="targetPoint" />
          </mxGeometry>
        </mxCell>
        <mxCell id="YesEiogPMr3verc6b-B8-11" value="hh &amp;gt; h" style="edgeStyle=orthogonalEdgeStyle;rounded=0;orthogonalLoop=1;jettySize=auto;html=1;exitX=0.5;exitY=1;exitDx=0;exitDy=0;entryX=0.5;entryY=0;entryDx=0;entryDy=0;" edge="1" parent="WIyWlLk6GJQsqaUBKTNV-1" target="YesEiogPMr3verc6b-B8-27">
          <mxGeometry relative="1" as="geometry">
            <mxPoint x="340" y="510" as="targetPoint" />
            <mxPoint x="340" y="430" as="sourcePoint" />
            <Array as="points" />
          </mxGeometry>
        </mxCell>
        <mxCell id="WIyWlLk6GJQsqaUBKTNV-6" value="for each row &lt;br&gt;(hh = 0 to h)" style="rhombus;whiteSpace=wrap;html=1;shadow=0;fontFamily=Helvetica;fontSize=12;align=center;strokeWidth=1;spacing=6;spacingTop=-4;" parent="WIyWlLk6GJQsqaUBKTNV-1" vertex="1">
          <mxGeometry x="280" y="320" width="120" height="110" as="geometry" />
        </mxCell>
        <mxCell id="YesEiogPMr3verc6b-B8-2" style="edgeStyle=orthogonalEdgeStyle;rounded=0;orthogonalLoop=1;jettySize=auto;html=1;exitX=0.5;exitY=0;exitDx=0;exitDy=0;" edge="1" parent="WIyWlLk6GJQsqaUBKTNV-1" source="YesEiogPMr3verc6b-B8-9">
          <mxGeometry relative="1" as="geometry">
            <mxPoint x="340" y="250" as="targetPoint" />
            <mxPoint x="500" y="340" as="sourcePoint" />
            <Array as="points">
              <mxPoint x="580" y="250" />
              <mxPoint x="340" y="250" />
            </Array>
          </mxGeometry>
        </mxCell>
        <mxCell id="YesEiogPMr3verc6b-B8-16" value="ww &amp;gt; w" style="edgeLabel;html=1;align=center;verticalAlign=middle;resizable=0;points=[];fontSize=12;" vertex="1" connectable="0" parent="YesEiogPMr3verc6b-B8-2">
          <mxGeometry x="-0.3733" y="4" relative="1" as="geometry">
            <mxPoint x="27" y="36" as="offset" />
          </mxGeometry>
        </mxCell>
        <mxCell id="YesEiogPMr3verc6b-B8-8" style="edgeStyle=orthogonalEdgeStyle;rounded=0;orthogonalLoop=1;jettySize=auto;html=1;exitX=0.5;exitY=1;exitDx=0;exitDy=0;entryX=0.5;entryY=0;entryDx=0;entryDy=0;" edge="1" parent="WIyWlLk6GJQsqaUBKTNV-1" source="YesEiogPMr3verc6b-B8-0" target="YesEiogPMr3verc6b-B8-3">
          <mxGeometry relative="1" as="geometry" />
        </mxCell>
        <mxCell id="YesEiogPMr3verc6b-B8-0" value="Get Path to Folder" style="rounded=1;whiteSpace=wrap;html=1;fontSize=12;glass=0;strokeWidth=1;shadow=0;" vertex="1" parent="WIyWlLk6GJQsqaUBKTNV-1">
          <mxGeometry x="120" y="-150" width="120" height="40" as="geometry" />
        </mxCell>
        <mxCell id="YesEiogPMr3verc6b-B8-47" style="edgeStyle=orthogonalEdgeStyle;rounded=0;orthogonalLoop=1;jettySize=auto;html=1;exitX=1;exitY=0.5;exitDx=0;exitDy=0;entryX=0;entryY=0.5;entryDx=0;entryDy=0;fontSize=12;" edge="1" parent="WIyWlLk6GJQsqaUBKTNV-1" source="YesEiogPMr3verc6b-B8-3" target="YesEiogPMr3verc6b-B8-4">
          <mxGeometry relative="1" as="geometry" />
        </mxCell>
        <mxCell id="YesEiogPMr3verc6b-B8-62" style="edgeStyle=orthogonalEdgeStyle;rounded=0;orthogonalLoop=1;jettySize=auto;html=1;exitX=0.5;exitY=1;exitDx=0;exitDy=0;entryX=0.5;entryY=0;entryDx=0;entryDy=0;entryPerimeter=0;fontSize=12;" edge="1" parent="WIyWlLk6GJQsqaUBKTNV-1" source="YesEiogPMr3verc6b-B8-3" target="YesEiogPMr3verc6b-B8-61">
          <mxGeometry relative="1" as="geometry" />
        </mxCell>
        <mxCell id="YesEiogPMr3verc6b-B8-3" value="for n = 0 to 30" style="rhombus;whiteSpace=wrap;html=1;shadow=0;fontFamily=Helvetica;fontSize=12;align=center;strokeWidth=1;spacing=6;spacingTop=-4;" vertex="1" parent="WIyWlLk6GJQsqaUBKTNV-1">
          <mxGeometry x="130" y="-40" width="100" height="80" as="geometry" />
        </mxCell>
        <mxCell id="YesEiogPMr3verc6b-B8-6" style="edgeStyle=orthogonalEdgeStyle;rounded=0;orthogonalLoop=1;jettySize=auto;html=1;exitX=0.5;exitY=1;exitDx=0;exitDy=0;" edge="1" parent="WIyWlLk6GJQsqaUBKTNV-1" source="YesEiogPMr3verc6b-B8-4" target="WIyWlLk6GJQsqaUBKTNV-3">
          <mxGeometry relative="1" as="geometry" />
        </mxCell>
        <mxCell id="YesEiogPMr3verc6b-B8-4" value="Get Path to Image" style="rounded=1;whiteSpace=wrap;html=1;fontSize=12;glass=0;strokeWidth=1;shadow=0;" vertex="1" parent="WIyWlLk6GJQsqaUBKTNV-1">
          <mxGeometry x="280" y="-20" width="120" height="40" as="geometry" />
        </mxCell>
        <mxCell id="YesEiogPMr3verc6b-B8-22" style="edgeStyle=orthogonalEdgeStyle;rounded=0;orthogonalLoop=1;jettySize=auto;html=1;exitX=0.5;exitY=1;exitDx=0;exitDy=0;entryX=0.5;entryY=0;entryDx=0;entryDy=0;fontSize=12;" edge="1" parent="WIyWlLk6GJQsqaUBKTNV-1" source="YesEiogPMr3verc6b-B8-9" target="YesEiogPMr3verc6b-B8-13">
          <mxGeometry relative="1" as="geometry">
            <mxPoint x="530" y="430" as="sourcePoint" />
            <Array as="points" />
          </mxGeometry>
        </mxCell>
        <mxCell id="YesEiogPMr3verc6b-B8-23" value="0 &amp;lt; ww &amp;lt; w" style="edgeLabel;html=1;align=center;verticalAlign=middle;resizable=0;points=[];fontSize=12;" vertex="1" connectable="0" parent="YesEiogPMr3verc6b-B8-22">
          <mxGeometry x="-0.2026" y="-2" relative="1" as="geometry">
            <mxPoint as="offset" />
          </mxGeometry>
        </mxCell>
        <mxCell id="YesEiogPMr3verc6b-B8-9" value="&lt;font style=&quot;font-size: 12px;&quot;&gt;for each column&lt;br&gt;(ww = 0 to w)&lt;/font&gt;" style="rhombus;whiteSpace=wrap;html=1;shadow=0;fontFamily=Helvetica;fontSize=12;align=center;strokeWidth=1;spacing=6;spacingTop=-4;" vertex="1" parent="WIyWlLk6GJQsqaUBKTNV-1">
          <mxGeometry x="520" y="320" width="120" height="110" as="geometry" />
        </mxCell>
        <mxCell id="YesEiogPMr3verc6b-B8-12" style="edgeStyle=orthogonalEdgeStyle;rounded=0;orthogonalLoop=1;jettySize=auto;html=1;exitX=0.5;exitY=1;exitDx=0;exitDy=0;" edge="1" parent="WIyWlLk6GJQsqaUBKTNV-1">
          <mxGeometry relative="1" as="geometry">
            <mxPoint x="530" y="430" as="sourcePoint" />
            <mxPoint x="530" y="430" as="targetPoint" />
          </mxGeometry>
        </mxCell>
        <mxCell id="YesEiogPMr3verc6b-B8-25" style="edgeStyle=orthogonalEdgeStyle;rounded=0;orthogonalLoop=1;jettySize=auto;html=1;exitX=0.5;exitY=1;exitDx=0;exitDy=0;entryX=0.5;entryY=0;entryDx=0;entryDy=0;fontSize=12;" edge="1" parent="WIyWlLk6GJQsqaUBKTNV-1" source="YesEiogPMr3verc6b-B8-13" target="YesEiogPMr3verc6b-B8-24">
          <mxGeometry relative="1" as="geometry" />
        </mxCell>
        <mxCell id="YesEiogPMr3verc6b-B8-13" value="Read PixelValue at coordinate (hh, ww)&lt;br&gt;[BGR]" style="rounded=1;whiteSpace=wrap;html=1;fontSize=12;glass=0;strokeWidth=1;shadow=0;" vertex="1" parent="WIyWlLk6GJQsqaUBKTNV-1">
          <mxGeometry x="520" y="500" width="120" height="50" as="geometry" />
        </mxCell>
        <mxCell id="YesEiogPMr3verc6b-B8-20" style="edgeStyle=orthogonalEdgeStyle;rounded=0;orthogonalLoop=1;jettySize=auto;html=1;exitX=0.5;exitY=1;exitDx=0;exitDy=0;entryX=0.5;entryY=0;entryDx=0;entryDy=0;fontSize=12;" edge="1" parent="WIyWlLk6GJQsqaUBKTNV-1" source="YesEiogPMr3verc6b-B8-17" target="WIyWlLk6GJQsqaUBKTNV-6">
          <mxGeometry relative="1" as="geometry" />
        </mxCell>
        <mxCell id="YesEiogPMr3verc6b-B8-17" value="Find width (w) and height (h) of Image" style="rounded=1;whiteSpace=wrap;html=1;fontSize=12;glass=0;strokeWidth=1;shadow=0;" vertex="1" parent="WIyWlLk6GJQsqaUBKTNV-1">
          <mxGeometry x="280" y="130" width="120" height="40" as="geometry" />
        </mxCell>
        <mxCell id="YesEiogPMr3verc6b-B8-26" style="edgeStyle=orthogonalEdgeStyle;rounded=0;orthogonalLoop=1;jettySize=auto;html=1;exitX=1;exitY=0.5;exitDx=0;exitDy=0;entryX=1;entryY=0.5;entryDx=0;entryDy=0;fontSize=12;" edge="1" parent="WIyWlLk6GJQsqaUBKTNV-1" source="YesEiogPMr3verc6b-B8-24" target="YesEiogPMr3verc6b-B8-9">
          <mxGeometry relative="1" as="geometry">
            <Array as="points">
              <mxPoint x="730" y="625" />
              <mxPoint x="730" y="375" />
            </Array>
          </mxGeometry>
        </mxCell>
        <mxCell id="YesEiogPMr3verc6b-B8-24" value="Compare values and decide most prominent colour" style="rounded=1;whiteSpace=wrap;html=1;fontSize=12;glass=0;strokeWidth=1;shadow=0;" vertex="1" parent="WIyWlLk6GJQsqaUBKTNV-1">
          <mxGeometry x="520" y="600" width="120" height="50" as="geometry" />
        </mxCell>
        <mxCell id="YesEiogPMr3verc6b-B8-31" style="edgeStyle=orthogonalEdgeStyle;rounded=0;orthogonalLoop=1;jettySize=auto;html=1;exitX=1;exitY=0.5;exitDx=0;exitDy=0;entryX=0;entryY=0.5;entryDx=0;entryDy=0;fontSize=12;" edge="1" parent="WIyWlLk6GJQsqaUBKTNV-1" source="YesEiogPMr3verc6b-B8-27" target="YesEiogPMr3verc6b-B8-30">
          <mxGeometry relative="1" as="geometry" />
        </mxCell>
        <mxCell id="YesEiogPMr3verc6b-B8-32" style="edgeStyle=orthogonalEdgeStyle;rounded=0;orthogonalLoop=1;jettySize=auto;html=1;exitX=0.5;exitY=1;exitDx=0;exitDy=0;entryX=0.5;entryY=0;entryDx=0;entryDy=0;fontSize=12;" edge="1" parent="WIyWlLk6GJQsqaUBKTNV-1" source="YesEiogPMr3verc6b-B8-27" target="YesEiogPMr3verc6b-B8-28">
          <mxGeometry relative="1" as="geometry" />
        </mxCell>
        <mxCell id="YesEiogPMr3verc6b-B8-27" value="if R &amp;gt; G&lt;br&gt;and&amp;nbsp;&lt;br&gt;R &amp;gt; B" style="rhombus;whiteSpace=wrap;html=1;fontSize=12;" vertex="1" parent="WIyWlLk6GJQsqaUBKTNV-1">
          <mxGeometry x="290" y="680" width="100" height="100" as="geometry" />
        </mxCell>
        <mxCell id="YesEiogPMr3verc6b-B8-34" style="edgeStyle=orthogonalEdgeStyle;rounded=0;orthogonalLoop=1;jettySize=auto;html=1;exitX=1;exitY=0.5;exitDx=0;exitDy=0;entryX=0;entryY=0.5;entryDx=0;entryDy=0;fontSize=12;" edge="1" parent="WIyWlLk6GJQsqaUBKTNV-1" source="YesEiogPMr3verc6b-B8-28" target="YesEiogPMr3verc6b-B8-33">
          <mxGeometry relative="1" as="geometry" />
        </mxCell>
        <mxCell id="YesEiogPMr3verc6b-B8-48" style="edgeStyle=orthogonalEdgeStyle;rounded=0;orthogonalLoop=1;jettySize=auto;html=1;exitX=0.5;exitY=1;exitDx=0;exitDy=0;entryX=0.5;entryY=0;entryDx=0;entryDy=0;fontSize=12;" edge="1" parent="WIyWlLk6GJQsqaUBKTNV-1" source="YesEiogPMr3verc6b-B8-28" target="YesEiogPMr3verc6b-B8-29">
          <mxGeometry relative="1" as="geometry" />
        </mxCell>
        <mxCell id="YesEiogPMr3verc6b-B8-28" value="if R &amp;gt; G&lt;br&gt;and&amp;nbsp;&lt;br&gt;R &amp;gt; B" style="rhombus;whiteSpace=wrap;html=1;fontSize=12;" vertex="1" parent="WIyWlLk6GJQsqaUBKTNV-1">
          <mxGeometry x="290" y="815" width="100" height="100" as="geometry" />
        </mxCell>
        <mxCell id="YesEiogPMr3verc6b-B8-41" style="edgeStyle=orthogonalEdgeStyle;rounded=0;orthogonalLoop=1;jettySize=auto;html=1;exitX=1;exitY=0.5;exitDx=0;exitDy=0;fontSize=12;" edge="1" parent="WIyWlLk6GJQsqaUBKTNV-1" source="YesEiogPMr3verc6b-B8-29" target="YesEiogPMr3verc6b-B8-40">
          <mxGeometry relative="1" as="geometry">
            <mxPoint x="390" y="970" as="sourcePoint" />
          </mxGeometry>
        </mxCell>
        <mxCell id="YesEiogPMr3verc6b-B8-29" value="if R &amp;gt; G&lt;br&gt;and&amp;nbsp;&lt;br&gt;R &amp;gt; B" style="rhombus;whiteSpace=wrap;html=1;fontSize=12;" vertex="1" parent="WIyWlLk6GJQsqaUBKTNV-1">
          <mxGeometry x="290" y="945" width="100" height="100" as="geometry" />
        </mxCell>
        <mxCell id="YesEiogPMr3verc6b-B8-35" style="edgeStyle=orthogonalEdgeStyle;rounded=0;orthogonalLoop=1;jettySize=auto;html=1;exitX=1;exitY=0.5;exitDx=0;exitDy=0;fontSize=12;entryX=0;entryY=0;entryDx=0;entryDy=0;" edge="1" parent="WIyWlLk6GJQsqaUBKTNV-1" source="YesEiogPMr3verc6b-B8-30" target="YesEiogPMr3verc6b-B8-37">
          <mxGeometry relative="1" as="geometry">
            <mxPoint x="760" y="1109.9999999999995" as="targetPoint" />
            <Array as="points">
              <mxPoint x="630" y="730" />
            </Array>
          </mxGeometry>
        </mxCell>
        <mxCell id="YesEiogPMr3verc6b-B8-30" value="colour = &quot;red&quot;" style="rounded=1;whiteSpace=wrap;html=1;fontSize=12;glass=0;strokeWidth=1;shadow=0;" vertex="1" parent="WIyWlLk6GJQsqaUBKTNV-1">
          <mxGeometry x="430" y="705" width="120" height="50" as="geometry" />
        </mxCell>
        <mxCell id="YesEiogPMr3verc6b-B8-65" style="edgeStyle=orthogonalEdgeStyle;rounded=0;orthogonalLoop=1;jettySize=auto;html=1;exitX=1;exitY=0.5;exitDx=0;exitDy=0;entryX=0;entryY=0.5;entryDx=0;entryDy=0;fontSize=14;" edge="1" parent="WIyWlLk6GJQsqaUBKTNV-1" source="YesEiogPMr3verc6b-B8-33" target="YesEiogPMr3verc6b-B8-37">
          <mxGeometry relative="1" as="geometry" />
        </mxCell>
        <mxCell id="YesEiogPMr3verc6b-B8-33" value="colour = &quot;red&quot;" style="rounded=1;whiteSpace=wrap;html=1;fontSize=12;glass=0;strokeWidth=1;shadow=0;" vertex="1" parent="WIyWlLk6GJQsqaUBKTNV-1">
          <mxGeometry x="430" y="840" width="120" height="50" as="geometry" />
        </mxCell>
        <mxCell id="YesEiogPMr3verc6b-B8-66" style="edgeStyle=orthogonalEdgeStyle;rounded=0;orthogonalLoop=1;jettySize=auto;html=1;exitX=1;exitY=0.5;exitDx=0;exitDy=0;entryX=0.5;entryY=1;entryDx=0;entryDy=0;entryPerimeter=0;fontSize=14;" edge="1" parent="WIyWlLk6GJQsqaUBKTNV-1" source="YesEiogPMr3verc6b-B8-37" target="YesEiogPMr3verc6b-B8-52">
          <mxGeometry relative="1" as="geometry" />
        </mxCell>
        <mxCell id="YesEiogPMr3verc6b-B8-37" value="print to terminal" style="rounded=1;whiteSpace=wrap;html=1;fontSize=12;glass=0;strokeWidth=1;shadow=0;" vertex="1" parent="WIyWlLk6GJQsqaUBKTNV-1">
          <mxGeometry x="630" y="840" width="120" height="50" as="geometry" />
        </mxCell>
        <mxCell id="YesEiogPMr3verc6b-B8-42" style="edgeStyle=orthogonalEdgeStyle;rounded=0;orthogonalLoop=1;jettySize=auto;html=1;exitX=1;exitY=0.5;exitDx=0;exitDy=0;entryX=0;entryY=1;entryDx=0;entryDy=0;fontSize=12;" edge="1" parent="WIyWlLk6GJQsqaUBKTNV-1" source="YesEiogPMr3verc6b-B8-40" target="YesEiogPMr3verc6b-B8-37">
          <mxGeometry relative="1" as="geometry">
            <Array as="points">
              <mxPoint x="560" y="990" />
              <mxPoint x="630" y="990" />
            </Array>
          </mxGeometry>
        </mxCell>
        <mxCell id="YesEiogPMr3verc6b-B8-40" value="colour = &quot;red&quot;" style="rounded=1;whiteSpace=wrap;html=1;fontSize=12;glass=0;strokeWidth=1;shadow=0;" vertex="1" parent="WIyWlLk6GJQsqaUBKTNV-1">
          <mxGeometry x="440" y="970" width="120" height="50" as="geometry" />
        </mxCell>
        <mxCell id="YesEiogPMr3verc6b-B8-58" style="edgeStyle=orthogonalEdgeStyle;rounded=0;orthogonalLoop=1;jettySize=auto;html=1;exitX=0.5;exitY=0;exitDx=0;exitDy=0;exitPerimeter=0;fontSize=12;" edge="1" parent="WIyWlLk6GJQsqaUBKTNV-1" source="YesEiogPMr3verc6b-B8-52">
          <mxGeometry relative="1" as="geometry">
            <mxPoint x="180" y="-60" as="targetPoint" />
            <Array as="points">
              <mxPoint x="800" y="-60" />
            </Array>
          </mxGeometry>
        </mxCell>
        <mxCell id="YesEiogPMr3verc6b-B8-64" value="True" style="edgeLabel;html=1;align=center;verticalAlign=middle;resizable=0;points=[];fontSize=14;" vertex="1" connectable="0" parent="YesEiogPMr3verc6b-B8-58">
          <mxGeometry x="-0.8927" y="-4" relative="1" as="geometry">
            <mxPoint x="-4" y="31" as="offset" />
          </mxGeometry>
        </mxCell>
        <mxCell id="YesEiogPMr3verc6b-B8-67" style="edgeStyle=orthogonalEdgeStyle;rounded=0;orthogonalLoop=1;jettySize=auto;html=1;exitX=1;exitY=0.5;exitDx=0;exitDy=0;exitPerimeter=0;fontSize=14;" edge="1" parent="WIyWlLk6GJQsqaUBKTNV-1" source="YesEiogPMr3verc6b-B8-52">
          <mxGeometry relative="1" as="geometry">
            <mxPoint x="810" y="680" as="targetPoint" />
            <Array as="points">
              <mxPoint x="870" y="510" />
              <mxPoint x="870" y="680" />
            </Array>
          </mxGeometry>
        </mxCell>
        <mxCell id="YesEiogPMr3verc6b-B8-69" value="False" style="edgeLabel;html=1;align=center;verticalAlign=middle;resizable=0;points=[];fontSize=14;" vertex="1" connectable="0" parent="YesEiogPMr3verc6b-B8-67">
          <mxGeometry x="-0.5416" y="-2" relative="1" as="geometry">
            <mxPoint y="42" as="offset" />
          </mxGeometry>
        </mxCell>
        <mxCell id="YesEiogPMr3verc6b-B8-52" value="key X pressed?" style="strokeWidth=2;html=1;shape=mxgraph.flowchart.decision;whiteSpace=wrap;fontSize=12;" vertex="1" parent="WIyWlLk6GJQsqaUBKTNV-1">
          <mxGeometry x="750" y="460" width="100" height="100" as="geometry" />
        </mxCell>
        <mxCell id="YesEiogPMr3verc6b-B8-61" value="Exit Proxess" style="strokeWidth=2;html=1;shape=mxgraph.flowchart.terminator;whiteSpace=wrap;fontSize=14;" vertex="1" parent="WIyWlLk6GJQsqaUBKTNV-1">
          <mxGeometry x="130" y="1080" width="100" height="60" as="geometry" />
        </mxCell>
        <mxCell id="YesEiogPMr3verc6b-B8-63" value="Start" style="strokeWidth=2;html=1;shape=mxgraph.flowchart.start_2;whiteSpace=wrap;fontSize=14;" vertex="1" parent="WIyWlLk6GJQsqaUBKTNV-1">
          <mxGeometry x="130" y="-300" width="100" height="100" as="geometry" />
        </mxCell>
      </root>
    </mxGraphModel>
  </diagram>
</mxfile>
